<?xml version="1.0" standalone="no"?>
<!DOCTYPE svg PUBLIC "-//W3C//DTD SVG 20010904//EN"
 "http://www.w3.org/TR/2001/REC-SVG-20010904/DTD/svg10.dtd">
<svg version="1.0" xmlns="http://www.w3.org/2000/svg"
 width="500.000000pt" height="500.000000pt" viewBox="0 0 500.000000 500.000000"
 preserveAspectRatio="xMidYMid meet">
<metadata>
Created by potrace 1.14, written by Peter Selinger 2001-2017
</metadata>
<g transform="translate(0.000000,500.000000) scale(0.100000,-0.100000)"
fill="#000000" stroke="none">
<path d="M2050 1918 c0 -594 -4 -892 -11 -937 -32 -187 -169 -295 -354 -278
-164 16 -247 103 -262 280 l-6 67 -255 0 -255 0 6 -87 c24 -355 254 -596 622
-654 112 -17 313 -15 404 5 246 54 434 194 532 396 46 95 69 188 80 319 6 76
9 451 7 941 l-3 815 -252 3 -253 2 0 -872z"/>
<path d="M2667 2784 c-4 -4 -7 -558 -7 -1231 l0 -1223 255 0 255 0 0 353 1
352 132 138 132 138 313 -491 314 -490 299 0 c237 0 299 3 293 12 -4 7 -205
314 -446 681 -298 454 -436 672 -430 680 5 7 199 250 431 540 231 291 421 533
421 538 0 5 -124 9 -304 9 l-305 0 -333 -432 c-184 -238 -374 -489 -424 -556
l-89 -124 -5 554 -5 553 -246 3 c-135 1 -248 -1 -252 -4z"/>
</g>
</svg>
